# Blender v2.82 (sub 7) OBJ File: ''
# www.blender.org
o Cube_Cube.001
v -6.949805 0.000000 6.949805
v -6.949805 13.979881 6.949805
v -6.949805 0.000000 -6.949805
v -6.949805 13.979881 -6.949805
v 6.949805 11.161833 6.039292
v 6.949805 13.322243 6.039292
v 6.949805 11.161835 -6.039292
v 6.949805 13.322243 -6.039292
v 6.949805 13.979881 -6.949805
v 6.949805 0.000000 -6.949805
v 6.949805 0.000000 6.949805
v 6.949805 13.979881 6.949805
v -6.949805 0.000000 -6.949805
v -6.949805 0.000000 -6.949805
v -6.949805 0.000000 6.949805
v -6.949805 0.000000 6.949805
v -6.949805 13.979881 6.949805
v -6.949805 13.979881 6.949805
v -6.949805 13.979881 -6.949805
v -6.949805 13.979881 -6.949805
v 6.949805 0.000000 -6.949805
v 6.949805 0.000000 -6.949805
v 6.949805 13.979881 -6.949805
v 6.949805 13.979881 -6.949805
v 6.949805 0.000000 6.949805
v 6.949805 0.000000 6.949805
v 6.949805 13.979881 6.949805
v 6.949805 13.979881 6.949805
vt 0.375000 0.250000
vt 0.625000 0.000000
vt 0.375000 0.000000
vt 0.375000 0.500000
vt 0.625000 0.250000
vt 0.375000 0.250000
vt 0.375000 1.000000
vt 0.625000 0.750000
vt 0.375000 0.750000
vt 0.125000 0.750000
vt 0.375000 0.500000
vt 0.125000 0.500000
vt 0.625000 0.750000
vt 0.875000 0.500000
vt 0.625000 0.500000
vt 0.625000 0.500000
vt 0.480683 0.606293
vt 0.519317 0.606293
vt 0.375000 0.500000
vt 0.480683 0.643707
vt 0.625000 0.750000
vt 0.519317 0.643707
vt 0.625000 0.250000
vt 0.625000 0.500000
vt 0.625000 1.000000
vt 0.375000 0.750000
vt 0.875000 0.750000
vt 0.375000 0.750000
vn 1.0000 0.0000 0.0000
vn 0.0000 0.0000 1.0000
vn 0.0000 0.0000 -1.0000
vn 0.0000 1.0000 0.0000
vn 0.0000 -1.0000 0.0000
vn -1.0000 0.0000 0.0000
s off
f 13/1/1 17/2/1 15/3/1
f 21/4/2 20/5/2 14/6/2
f 16/7/3 28/8/3 26/9/3
f 1/10/4 22/11/4 3/12/4
f 27/13/5 4/14/5 24/15/5
f 9/16/6 7/17/6 8/18/6
f 10/19/6 5/20/6 7/17/6
f 12/21/6 8/18/6 6/22/6
f 5/20/6 12/21/6 6/22/6
f 13/1/1 19/23/1 17/2/1
f 21/4/2 23/24/2 20/5/2
f 16/7/3 18/25/3 28/8/3
f 1/10/4 25/26/4 22/11/4
f 27/13/5 2/27/5 4/14/5
f 9/16/6 10/19/6 7/17/6
f 10/19/6 11/28/6 5/20/6
f 12/21/6 9/16/6 8/18/6
f 5/20/6 11/28/6 12/21/6
